<mxfile host="app.diagrams.net" modified="2021-05-17T05:56:51.458Z" agent="5.0 (Windows NT 10.0; Win64; x64) AppleWebKit/537.36 (KHTML, like Gecko) Chrome/90.0.4430.212 Safari/537.36" etag="HCkO9_hJmj685fDkMmPl" version="14.6.13" type="github">
  <diagram id="no_zvn_jt7BNAMizP92p" name="Page-1">
    <mxGraphModel dx="1377" dy="839" grid="1" gridSize="10" guides="1" tooltips="1" connect="1" arrows="1" fold="1" page="1" pageScale="1" pageWidth="827" pageHeight="1169" math="0" shadow="0">
      <root>
        <mxCell id="0" />
        <mxCell id="1" parent="0" />
        <mxCell id="gTRop01zv4GmD_jJxqDv-25" value="" style="edgeStyle=orthogonalEdgeStyle;rounded=0;orthogonalLoop=1;jettySize=auto;html=1;" parent="1" source="gTRop01zv4GmD_jJxqDv-1" target="gTRop01zv4GmD_jJxqDv-9" edge="1">
          <mxGeometry relative="1" as="geometry" />
        </mxCell>
        <mxCell id="gTRop01zv4GmD_jJxqDv-1" value="Select Piece" style="rounded=0;whiteSpace=wrap;html=1;" parent="1" vertex="1">
          <mxGeometry x="150" y="110" width="120" height="60" as="geometry" />
        </mxCell>
        <mxCell id="gTRop01zv4GmD_jJxqDv-3" value="" style="edgeStyle=orthogonalEdgeStyle;rounded=0;orthogonalLoop=1;jettySize=auto;html=1;" parent="1" source="gTRop01zv4GmD_jJxqDv-2" target="gTRop01zv4GmD_jJxqDv-1" edge="1">
          <mxGeometry relative="1" as="geometry" />
        </mxCell>
        <mxCell id="gTRop01zv4GmD_jJxqDv-81" value="" style="edgeStyle=orthogonalEdgeStyle;rounded=0;orthogonalLoop=1;jettySize=auto;html=1;entryX=0;entryY=0.5;entryDx=0;entryDy=0;" parent="1" source="gTRop01zv4GmD_jJxqDv-2" target="gTRop01zv4GmD_jJxqDv-33" edge="1">
          <mxGeometry relative="1" as="geometry">
            <mxPoint x="85" y="200" as="targetPoint" />
            <Array as="points">
              <mxPoint x="90" y="680" />
            </Array>
          </mxGeometry>
        </mxCell>
        <mxCell id="gTRop01zv4GmD_jJxqDv-2" value="Begin&lt;br&gt;Position" style="text;html=1;strokeColor=none;fillColor=none;align=center;verticalAlign=middle;whiteSpace=wrap;rounded=0;" parent="1" vertex="1">
          <mxGeometry x="60" y="60" width="50" height="40" as="geometry" />
        </mxCell>
        <mxCell id="gTRop01zv4GmD_jJxqDv-6" value="" style="edgeStyle=orthogonalEdgeStyle;rounded=0;orthogonalLoop=1;jettySize=auto;html=1;entryX=0.85;entryY=-0.037;entryDx=0;entryDy=0;entryPerimeter=0;" parent="1" source="gTRop01zv4GmD_jJxqDv-4" target="gTRop01zv4GmD_jJxqDv-1" edge="1">
          <mxGeometry relative="1" as="geometry">
            <mxPoint x="330" y="100" as="targetPoint" />
          </mxGeometry>
        </mxCell>
        <mxCell id="gTRop01zv4GmD_jJxqDv-4" value="Piece Selected" style="text;html=1;strokeColor=none;fillColor=none;align=center;verticalAlign=middle;whiteSpace=wrap;rounded=0;" parent="1" vertex="1">
          <mxGeometry x="340" y="70" width="40" height="20" as="geometry" />
        </mxCell>
        <mxCell id="gTRop01zv4GmD_jJxqDv-26" value="" style="edgeStyle=orthogonalEdgeStyle;rounded=0;orthogonalLoop=1;jettySize=auto;html=1;" parent="1" source="gTRop01zv4GmD_jJxqDv-9" target="gTRop01zv4GmD_jJxqDv-16" edge="1">
          <mxGeometry relative="1" as="geometry" />
        </mxCell>
        <mxCell id="gTRop01zv4GmD_jJxqDv-9" value="Allowable Moves" style="text;html=1;strokeColor=none;fillColor=none;align=center;verticalAlign=middle;whiteSpace=wrap;rounded=0;" parent="1" vertex="1">
          <mxGeometry x="180" y="200" width="60" height="50" as="geometry" />
        </mxCell>
        <mxCell id="gTRop01zv4GmD_jJxqDv-77" value="" style="edgeStyle=orthogonalEdgeStyle;rounded=0;orthogonalLoop=1;jettySize=auto;html=1;" parent="1" source="gTRop01zv4GmD_jJxqDv-16" target="gTRop01zv4GmD_jJxqDv-31" edge="1">
          <mxGeometry relative="1" as="geometry" />
        </mxCell>
        <mxCell id="gTRop01zv4GmD_jJxqDv-16" value="Allowable&lt;br&gt;Trajectories" style="rounded=0;whiteSpace=wrap;html=1;" parent="1" vertex="1">
          <mxGeometry x="150" y="300" width="120" height="60" as="geometry" />
        </mxCell>
        <mxCell id="gTRop01zv4GmD_jJxqDv-48" value="" style="edgeStyle=orthogonalEdgeStyle;rounded=0;orthogonalLoop=1;jettySize=auto;html=1;entryX=0;entryY=0.5;entryDx=0;entryDy=0;" parent="1" source="gTRop01zv4GmD_jJxqDv-20" target="gTRop01zv4GmD_jJxqDv-55" edge="1">
          <mxGeometry relative="1" as="geometry">
            <mxPoint x="760" y="450" as="targetPoint" />
          </mxGeometry>
        </mxCell>
        <mxCell id="gTRop01zv4GmD_jJxqDv-20" value="J^T" style="rounded=0;whiteSpace=wrap;html=1;" parent="1" vertex="1">
          <mxGeometry x="540" y="420" width="120" height="60" as="geometry" />
        </mxCell>
        <mxCell id="gTRop01zv4GmD_jJxqDv-45" value="" style="edgeStyle=orthogonalEdgeStyle;rounded=0;orthogonalLoop=1;jettySize=auto;html=1;" parent="1" source="gTRop01zv4GmD_jJxqDv-22" target="gTRop01zv4GmD_jJxqDv-20" edge="1">
          <mxGeometry relative="1" as="geometry" />
        </mxCell>
        <mxCell id="gTRop01zv4GmD_jJxqDv-82" value="" style="edgeStyle=orthogonalEdgeStyle;rounded=0;orthogonalLoop=1;jettySize=auto;html=1;entryX=0.75;entryY=1;entryDx=0;entryDy=0;" parent="1" source="gTRop01zv4GmD_jJxqDv-22" target="gTRop01zv4GmD_jJxqDv-16" edge="1">
          <mxGeometry relative="1" as="geometry" />
        </mxCell>
        <mxCell id="gTRop01zv4GmD_jJxqDv-22" value="Trajectory Mode" style="rounded=0;whiteSpace=wrap;html=1;" parent="1" vertex="1">
          <mxGeometry x="186" y="450" width="194" height="100" as="geometry" />
        </mxCell>
        <mxCell id="gTRop01zv4GmD_jJxqDv-78" value="" style="edgeStyle=orthogonalEdgeStyle;rounded=0;orthogonalLoop=1;jettySize=auto;html=1;entryX=0.814;entryY=-0.04;entryDx=0;entryDy=0;entryPerimeter=0;" parent="1" source="gTRop01zv4GmD_jJxqDv-31" target="gTRop01zv4GmD_jJxqDv-22" edge="1">
          <mxGeometry relative="1" as="geometry" />
        </mxCell>
        <mxCell id="gTRop01zv4GmD_jJxqDv-31" value="list of &lt;br&gt;x_dot_hat" style="text;html=1;strokeColor=none;fillColor=none;align=center;verticalAlign=middle;whiteSpace=wrap;rounded=0;" parent="1" vertex="1">
          <mxGeometry x="340" y="300" width="60" height="60" as="geometry" />
        </mxCell>
        <mxCell id="gTRop01zv4GmD_jJxqDv-79" value="" style="edgeStyle=orthogonalEdgeStyle;rounded=0;orthogonalLoop=1;jettySize=auto;html=1;" parent="1" source="gTRop01zv4GmD_jJxqDv-33" target="gTRop01zv4GmD_jJxqDv-22" edge="1">
          <mxGeometry relative="1" as="geometry" />
        </mxCell>
        <mxCell id="gTRop01zv4GmD_jJxqDv-33" value="Trajectory Chosen" style="rounded=0;whiteSpace=wrap;html=1;" parent="1" vertex="1">
          <mxGeometry x="185" y="650" width="120" height="60" as="geometry" />
        </mxCell>
        <mxCell id="gTRop01zv4GmD_jJxqDv-83" value="" style="edgeStyle=orthogonalEdgeStyle;rounded=0;orthogonalLoop=1;jettySize=auto;html=1;" parent="1" source="gTRop01zv4GmD_jJxqDv-34" target="gTRop01zv4GmD_jJxqDv-33" edge="1">
          <mxGeometry relative="1" as="geometry" />
        </mxCell>
        <mxCell id="gTRop01zv4GmD_jJxqDv-34" value="Motor Movement" style="text;html=1;strokeColor=none;fillColor=none;align=center;verticalAlign=middle;whiteSpace=wrap;rounded=0;" parent="1" vertex="1">
          <mxGeometry x="200" y="780" width="70" height="55" as="geometry" />
        </mxCell>
        <mxCell id="gTRop01zv4GmD_jJxqDv-75" value="" style="edgeStyle=orthogonalEdgeStyle;rounded=0;orthogonalLoop=1;jettySize=auto;html=1;entryX=0.75;entryY=1;entryDx=0;entryDy=0;" parent="1" source="gTRop01zv4GmD_jJxqDv-42" target="gTRop01zv4GmD_jJxqDv-22" edge="1">
          <mxGeometry relative="1" as="geometry">
            <mxPoint x="335" y="650" as="targetPoint" />
            <Array as="points">
              <mxPoint x="331" y="650" />
            </Array>
          </mxGeometry>
        </mxCell>
        <mxCell id="gTRop01zv4GmD_jJxqDv-42" value="Current&lt;br&gt;Position in Traj Mode" style="text;html=1;strokeColor=none;fillColor=none;align=center;verticalAlign=middle;whiteSpace=wrap;rounded=0;" parent="1" vertex="1">
          <mxGeometry x="450" y="620" width="70" height="60" as="geometry" />
        </mxCell>
        <mxCell id="gTRop01zv4GmD_jJxqDv-46" value="x_dot_hat &lt;br&gt;REF" style="text;html=1;strokeColor=none;fillColor=none;align=center;verticalAlign=middle;whiteSpace=wrap;rounded=0;" parent="1" vertex="1">
          <mxGeometry x="450" y="400" width="56" height="40" as="geometry" />
        </mxCell>
        <mxCell id="gTRop01zv4GmD_jJxqDv-50" value="" style="edgeStyle=orthogonalEdgeStyle;rounded=0;orthogonalLoop=1;jettySize=auto;html=1;entryX=0.5;entryY=1;entryDx=0;entryDy=0;" parent="1" source="gTRop01zv4GmD_jJxqDv-49" target="gTRop01zv4GmD_jJxqDv-55" edge="1">
          <mxGeometry relative="1" as="geometry">
            <mxPoint x="790" y="450" as="targetPoint" />
          </mxGeometry>
        </mxCell>
        <mxCell id="gTRop01zv4GmD_jJxqDv-49" value="Q_dot&amp;nbsp;&lt;br&gt;motor" style="text;html=1;strokeColor=none;fillColor=none;align=center;verticalAlign=middle;whiteSpace=wrap;rounded=0;" parent="1" vertex="1">
          <mxGeometry x="761.25" y="520" width="52.5" height="40" as="geometry" />
        </mxCell>
        <mxCell id="gTRop01zv4GmD_jJxqDv-51" value="Q_dot_ref" style="text;html=1;strokeColor=none;fillColor=none;align=center;verticalAlign=middle;whiteSpace=wrap;rounded=0;" parent="1" vertex="1">
          <mxGeometry x="665" y="415" width="75" height="20" as="geometry" />
        </mxCell>
        <mxCell id="gTRop01zv4GmD_jJxqDv-57" value="" style="edgeStyle=orthogonalEdgeStyle;rounded=0;orthogonalLoop=1;jettySize=auto;html=1;" parent="1" source="gTRop01zv4GmD_jJxqDv-55" target="gTRop01zv4GmD_jJxqDv-56" edge="1">
          <mxGeometry relative="1" as="geometry" />
        </mxCell>
        <mxCell id="gTRop01zv4GmD_jJxqDv-55" value="&lt;span&gt;+sum-&lt;/span&gt;" style="ellipse;whiteSpace=wrap;html=1;aspect=fixed;" parent="1" vertex="1">
          <mxGeometry x="765" y="427.5" width="45" height="45" as="geometry" />
        </mxCell>
        <mxCell id="gTRop01zv4GmD_jJxqDv-59" value="" style="edgeStyle=orthogonalEdgeStyle;rounded=0;orthogonalLoop=1;jettySize=auto;html=1;" parent="1" source="gTRop01zv4GmD_jJxqDv-56" target="gTRop01zv4GmD_jJxqDv-58" edge="1">
          <mxGeometry relative="1" as="geometry" />
        </mxCell>
        <mxCell id="gTRop01zv4GmD_jJxqDv-56" value="PI&lt;br&gt;Control" style="rounded=0;whiteSpace=wrap;html=1;" parent="1" vertex="1">
          <mxGeometry x="920" y="430" width="60" height="40" as="geometry" />
        </mxCell>
        <mxCell id="gTRop01zv4GmD_jJxqDv-61" value="" style="edgeStyle=orthogonalEdgeStyle;rounded=0;orthogonalLoop=1;jettySize=auto;html=1;" parent="1" source="gTRop01zv4GmD_jJxqDv-58" target="gTRop01zv4GmD_jJxqDv-60" edge="1">
          <mxGeometry relative="1" as="geometry" />
        </mxCell>
        <mxCell id="gTRop01zv4GmD_jJxqDv-58" value="MOTORS" style="shape=process;whiteSpace=wrap;html=1;backgroundOutline=1;" parent="1" vertex="1">
          <mxGeometry x="1080" y="420" width="120" height="60" as="geometry" />
        </mxCell>
        <mxCell id="gTRop01zv4GmD_jJxqDv-63" value="" style="edgeStyle=orthogonalEdgeStyle;rounded=0;orthogonalLoop=1;jettySize=auto;html=1;" parent="1" source="gTRop01zv4GmD_jJxqDv-60" target="gTRop01zv4GmD_jJxqDv-62" edge="1">
          <mxGeometry relative="1" as="geometry" />
        </mxCell>
        <mxCell id="gTRop01zv4GmD_jJxqDv-69" value="" style="edgeStyle=orthogonalEdgeStyle;rounded=0;orthogonalLoop=1;jettySize=auto;html=1;" parent="1" source="gTRop01zv4GmD_jJxqDv-60" target="gTRop01zv4GmD_jJxqDv-68" edge="1">
          <mxGeometry relative="1" as="geometry">
            <Array as="points">
              <mxPoint x="1150" y="650" />
            </Array>
          </mxGeometry>
        </mxCell>
        <mxCell id="gTRop01zv4GmD_jJxqDv-60" value="FILTER?" style="whiteSpace=wrap;html=1;" parent="1" vertex="1">
          <mxGeometry x="1080" y="560" width="120" height="60" as="geometry" />
        </mxCell>
        <mxCell id="gTRop01zv4GmD_jJxqDv-64" value="" style="edgeStyle=orthogonalEdgeStyle;rounded=0;orthogonalLoop=1;jettySize=auto;html=1;" parent="1" source="gTRop01zv4GmD_jJxqDv-62" edge="1">
          <mxGeometry relative="1" as="geometry">
            <mxPoint x="788" y="560" as="targetPoint" />
            <Array as="points">
              <mxPoint x="788" y="590" />
            </Array>
          </mxGeometry>
        </mxCell>
        <mxCell id="gTRop01zv4GmD_jJxqDv-85" value="" style="edgeStyle=orthogonalEdgeStyle;rounded=0;orthogonalLoop=1;jettySize=auto;html=1;entryX=1;entryY=0.5;entryDx=0;entryDy=0;" parent="1" source="gTRop01zv4GmD_jJxqDv-62" target="gTRop01zv4GmD_jJxqDv-34" edge="1">
          <mxGeometry relative="1" as="geometry">
            <mxPoint x="940" y="730" as="targetPoint" />
            <Array as="points">
              <mxPoint x="940" y="808" />
            </Array>
          </mxGeometry>
        </mxCell>
        <mxCell id="gTRop01zv4GmD_jJxqDv-62" value="d/dt" style="whiteSpace=wrap;html=1;" parent="1" vertex="1">
          <mxGeometry x="880" y="560" width="120" height="60" as="geometry" />
        </mxCell>
        <mxCell id="gTRop01zv4GmD_jJxqDv-65" value="Q&lt;br&gt;Motor Angle" style="text;html=1;strokeColor=none;fillColor=none;align=center;verticalAlign=middle;whiteSpace=wrap;rounded=0;" parent="1" vertex="1">
          <mxGeometry x="1150" y="500" width="40" height="50" as="geometry" />
        </mxCell>
        <mxCell id="gTRop01zv4GmD_jJxqDv-66" value="Q&lt;br&gt;Motor Angle" style="text;html=1;strokeColor=none;fillColor=none;align=center;verticalAlign=middle;whiteSpace=wrap;rounded=0;" parent="1" vertex="1">
          <mxGeometry x="1020" y="535" width="40" height="50" as="geometry" />
        </mxCell>
        <mxCell id="gTRop01zv4GmD_jJxqDv-67" value="Q&lt;br&gt;Motor Angle" style="text;html=1;strokeColor=none;fillColor=none;align=center;verticalAlign=middle;whiteSpace=wrap;rounded=0;" parent="1" vertex="1">
          <mxGeometry x="1180" y="630" width="40" height="50" as="geometry" />
        </mxCell>
        <mxCell id="gTRop01zv4GmD_jJxqDv-71" value="" style="edgeStyle=orthogonalEdgeStyle;rounded=0;orthogonalLoop=1;jettySize=auto;html=1;entryX=1;entryY=0.5;entryDx=0;entryDy=0;" parent="1" source="gTRop01zv4GmD_jJxqDv-68" target="gTRop01zv4GmD_jJxqDv-42" edge="1">
          <mxGeometry relative="1" as="geometry">
            <mxPoint x="490" y="650" as="targetPoint" />
            <Array as="points">
              <mxPoint x="520" y="650" />
              <mxPoint x="520" y="650" />
            </Array>
          </mxGeometry>
        </mxCell>
        <mxCell id="gTRop01zv4GmD_jJxqDv-68" value="Forward Kinematics" style="whiteSpace=wrap;html=1;" parent="1" vertex="1">
          <mxGeometry x="740" y="630" width="120" height="60" as="geometry" />
        </mxCell>
        <mxCell id="gTRop01zv4GmD_jJxqDv-86" value="X_motor" style="text;html=1;strokeColor=none;fillColor=none;align=center;verticalAlign=middle;whiteSpace=wrap;rounded=0;" parent="1" vertex="1">
          <mxGeometry x="650" y="590" width="80" height="50" as="geometry" />
        </mxCell>
        <mxCell id="gTRop01zv4GmD_jJxqDv-88" value="Error Q_dot" style="text;html=1;strokeColor=none;fillColor=none;align=center;verticalAlign=middle;whiteSpace=wrap;rounded=0;" parent="1" vertex="1">
          <mxGeometry x="827" y="410" width="75" height="20" as="geometry" />
        </mxCell>
        <mxCell id="gTRop01zv4GmD_jJxqDv-91" value="Trajectory Mode (Valid for Bishop &amp; Rook Only)" style="swimlane;fontStyle=1;align=center;verticalAlign=top;childLayout=stackLayout;horizontal=1;startSize=26;horizontalStack=0;resizeParent=1;resizeParentMax=0;resizeLast=0;collapsible=1;marginBottom=0;" parent="1" vertex="1">
          <mxGeometry x="520" y="70" width="370" height="230" as="geometry" />
        </mxCell>
        <mxCell id="gTRop01zv4GmD_jJxqDv-92" value="- Beginning Position&#xa;- List of x_hat&#xa;&#xa;- Traj mode ON/OFF&#xa;- curr x_hat (trajectory Chosen)&#xa;&#xa;- BOUNDARY CHECKING&#xa;&#xa;" style="text;strokeColor=none;fillColor=none;align=left;verticalAlign=top;spacingLeft=4;spacingRight=4;overflow=hidden;rotatable=0;points=[[0,0.5],[1,0.5]];portConstraint=eastwest;" parent="gTRop01zv4GmD_jJxqDv-91" vertex="1">
          <mxGeometry y="26" width="370" height="114" as="geometry" />
        </mxCell>
        <mxCell id="gTRop01zv4GmD_jJxqDv-93" value="" style="line;strokeWidth=1;fillColor=none;align=left;verticalAlign=middle;spacingTop=-1;spacingLeft=3;spacingRight=3;rotatable=0;labelPosition=right;points=[];portConstraint=eastwest;" parent="gTRop01zv4GmD_jJxqDv-91" vertex="1">
          <mxGeometry y="140" width="370" height="8" as="geometry" />
        </mxCell>
        <mxCell id="gTRop01zv4GmD_jJxqDv-94" value="- Check Bounds&#xa;- Compare applied Motor Trajectory &#xa;to Allowable trajectory" style="text;strokeColor=none;fillColor=none;align=left;verticalAlign=top;spacingLeft=4;spacingRight=4;overflow=hidden;rotatable=0;points=[[0,0.5],[1,0.5]];portConstraint=eastwest;" parent="gTRop01zv4GmD_jJxqDv-91" vertex="1">
          <mxGeometry y="148" width="370" height="82" as="geometry" />
        </mxCell>
      </root>
    </mxGraphModel>
  </diagram>
</mxfile>
